<svg width="24" height="24" viewBox="0 0 24 24" fill="none" xmlns="http://www.w3.org/2000/svg">
<path d="M16 5.23677C16 4.00203 15.0232 3 13.8182 3C13.0814 3 12.4068 3.37607 12 3.9573C11.5932 3.37607 10.9186 3 10.1818 3C8.97677 3 8 4.00203 8 5.23677C8 7.16004 10.1014 9 12 9C13.8983 9 16 7.15989 16 5.23677Z" fill="#cbd5e1"/>
<path d="M7 9C5 9 3 11.0638 3 14C3 18.941 6.2355 21 12 21C17.7645 21 21 18.941 21 14C21 11.0638 19 9 17 9C15 9 13.8458 10 12 10C10.1542 10 9 9 7 9ZM12 17C10.3431 17 9 16.3284 9 15.5C9 14.6716 10.3431 14 12 14C13.6569 14 15 14.6716 15 15.5C15 16.3284 13.6569 17 12 17Z" fill="#cbd5e1"/>
</svg>
