<svg width="24" height="24" viewBox="0 0 24 24" fill="none" xmlns="http://www.w3.org/2000/svg">
<path d="M6 15C6 19 6.3569 20 12 20C17.6431 20 18 19 18 15C18 11.9153 17.8642 11.1143 18.2018 10.7372C18.4114 10.5031 18.8036 10.4324 19.5241 10.08C21.4052 9.16 21.4052 9 19.9944 6.5C19.5241 5.66667 18.5836 4 16.7026 4C14.8215 4 14.5864 4.5 14.3513 5C14.1162 5.5 13.881 6 12 6C10.1295 6 9.88653 5.5056 9.64216 5.00843C9.39503 4.50563 9.14651 4 7.21192 4C5.41639 4 4.47587 5.66666 4.00561 6.5C2.59485 9 2.59484 9.16 4.47587 10.08C5.193 10.4307 5.58486 10.5141 5.79522 10.7555C6.13664 11.1473 6 11.9557 6 15ZM13 9H14C14.5523 9 15 9.44772 15 10C15 10.5523 14.5523 11 14 11H13C12.4477 11 12 10.5523 12 10C12 9.44772 12.4477 9 13 9Z" fill="#cbd5e1"/>
</svg>
