<svg width="24" height="24" viewBox="0 0 24 24" fill="none" xmlns="http://www.w3.org/2000/svg">
<path d="M6.00225 8.00007C6.00223 3.00208 7 3.00208 11 3.00208H13.0001C17 3.00201 18 3.00208 18 8.00005L18.0002 9.22872C18.0007 11.3213 18.0016 14.9356 17.9978 16C17.9799 20.998 17 21 13 21H11C6.99998 21 6.00222 20.998 6.00223 16C6.00223 15.6488 6.0019 15.0198 6.0015 14.2596C6.00039 12.1341 5.99873 8.98209 6.00225 8.00007ZM10 6C10 6.55229 10.4477 7 11 7H13C13.5523 7 14 6.55229 14 6C14 5.44772 13.5523 5 13 5H11C10.4477 5 10 5.44772 10 6ZM12 19C12.5523 19 13 18.5523 13 18C13 17.4477 12.5523 17 12 17C11.4477 17 11 17.4477 11 18C11 18.5523 11.4477 19 12 19Z" fill="#cbd5e1"/>
</svg>
