<svg width="24" height="24" viewBox="0 0 24 24" fill="none" xmlns="http://www.w3.org/2000/svg">
<path d="M12 3C18.125 3 19 4 19 8.5C19 9.5 18.931 9.76658 17.5 10.1154C16.9145 10.2582 16.3867 10.5357 15.9612 10.9612C15.6607 11.2617 15.434 11.6132 15.2765 12C15.2428 12.0827 15.2132 12.1585 15.1861 12.2279C14.9897 12.7312 14.9239 12.8997 14.3726 12.9402C13.564 12.9995 12.601 13 12 13C11.399 13 10.436 12.9995 9.62736 12.9402C9.07606 12.8997 9.01032 12.7313 8.8139 12.228C8.7868 12.1585 8.75721 12.0827 8.72352 12C8.56599 11.6132 8.3393 11.2617 8.03879 10.9612C7.61326 10.5357 7.08554 10.2582 6.5 10.1154C5.06895 9.76658 5 9.5 5 8.5C5 4 5.875 3 12 3Z" fill="#cbd5e1"/>
<path d="M18.5 11C16.9488 11 16 11.9488 16 13.5C16 14.5 8 14.5 8 13.5C8 11.9488 7.05117 11 5.5 11C3.94883 11 3 11.9488 3 13.5C3 14.6822 3.55113 15.5145 4.5 15.8436C4.5661 15.8665 4.62347 15.8851 4.67328 15.9013C4.82391 15.9501 4.90526 15.9764 4.94913 16.0323C5.00062 16.0978 5.00045 16.2039 5.00007 16.4347L5 16.5C5 17.4901 5.28593 18.1126 6.28243 18.4888L6.01943 19.8038C5.91112 20.3454 6.26233 20.8722 6.80389 20.9805C7.34545 21.0888 7.87228 20.7376 7.98059 20.1961L8.24526 18.8727C9.20603 18.964 10.4351 19 12 19C13.3096 19 14.384 18.9748 15.2628 18.9131L15.5194 20.1961C15.6277 20.7376 16.1545 21.0888 16.6961 20.9805C17.2377 20.8722 17.5889 20.3454 17.4806 19.8038L17.2468 18.635C18.6267 18.2826 19 17.6313 19 16.5L18.9999 16.4347C18.9996 16.2039 18.9994 16.0978 19.0509 16.0323C19.0947 15.9764 19.1761 15.9501 19.3267 15.9013C19.3765 15.8851 19.4339 15.8665 19.5 15.8436C20.4489 15.5145 21 14.6822 21 13.5C21 11.9488 20.0512 11 18.5 11Z" fill="#cbd5e1"/>
</svg>
