<svg width="24" height="24" viewBox="0 0 24 24" fill="none" xmlns="http://www.w3.org/2000/svg">
<path d="M5.03846 4.96042C5.23741 6.65335 5.78251 8.91407 7.26411 9.65342C8.32672 10.1837 9.99423 9.99285 10.9536 9.81615C10.9864 10.4747 10.996 11.1993 10.9988 12H7.50008C4.50012 12 4.72233 13 5.50004 16.4998C6.27778 19.9998 7 21 12 21C17 21 17.7223 20 18.5001 16.5C19.2778 13 19.5001 12 16.5001 12H12.9989C12.9952 10.9009 12.9783 9.88571 12.9028 8.97946C12.8051 7.80765 12.6037 6.72126 12.1444 5.8028C11.635 4.78388 10.6796 3.95579 9.59105 3.60366C8.737 3.28048 7.77473 3.1137 6.94702 3.02889C5.2658 2.85669 4.86079 3.44852 5.03846 4.96042Z" fill="#cbd5e1"/>
<path d="M15.0789 9.05816C14.968 8.2964 14.9235 7.28533 15.2938 6.62522C15.7197 5.86607 16.7877 5.40481 17.6164 5.15019C18.5 4.87863 18.7694 4.88747 18.9211 5.9301C19.0319 6.69186 19.0765 7.70294 18.7062 8.36304C18.263 9.15288 17.125 9.62025 16.2844 9.86794C15.4438 10.1156 15.2306 10.1008 15.0789 9.05816Z" fill="#cbd5e1"/>
</svg>
