<svg width="24" height="24" viewBox="0 0 24 24" fill="none" xmlns="http://www.w3.org/2000/svg">
<path d="M20 6C20 8 18.6667 8 12 8C5.33333 8 4 8 4 6C4 4 5.33333 4 12 4C18.6667 4 20 4 20 6ZM16 7C16.5523 7 17 6.55228 17 6C17 5.44772 16.5523 5 16 5C15.4477 5 15 5.44772 15 6C15 6.55228 15.4477 7 16 7ZM14 6C14 5.44772 13.5523 5 13 5C12.4477 5 12 5.44772 12 6C12 6.55228 12.4477 7 13 7C13.5523 7 14 6.55228 14 6Z" fill="#cbd5e1"/>
<path d="M7.9081 8.96837C8.98532 9.00005 10.3306 9.00005 11.9845 9.00005H12.0155C13.6694 9.00005 15.0147 9.00005 16.0919 8.96837C17.1621 8.93689 18.0313 8.8732 18.7095 8.72785C19.9986 8.45163 20 9.00004 20 9.50004V12.5001C20 19.0001 20 20.0001 12 20.0001C4 20.0001 4 19.0001 4 12.5001L4 9.50004C4 9.00002 4.00141 8.45163 5.29047 8.72785C5.96874 8.8732 6.83785 8.93689 7.9081 8.96837ZM15 14C15 12.3431 13.6569 11 12 11C10.3431 11 9 12.3431 9 14C9 15.6569 10.3431 17 12 17C13.6569 17 15 15.6569 15 14Z" fill="#cbd5e1"/>
</svg>
