<svg width="24" height="24" viewBox="0 0 24 24" fill="none" xmlns="http://www.w3.org/2000/svg">
<path d="M11.5 3C14.6765 2.99998 16.7647 4 16.7647 4.5C16.7647 5.08035 16.1307 5.43616 15.292 5.65431C15.5734 6.36158 15.7059 7.1635 15.7059 8C15.7059 8.60781 15.4851 8.87958 14.6471 9C12.2074 9.35056 8.29412 10.7594 8.29412 13.5C8.29412 14.5682 8.76048 15.4594 9.5438 16.0747C10.3183 16.6832 11.372 17 12.5294 17C13.7685 17 14.8221 16.4168 15.5508 15.7285C15.9176 15.3822 16.2149 14.9978 16.423 14.6226C16.6265 14.2557 16.7647 13.8611 16.7647 13.5C16.7647 13.2239 16.5277 13 16.2353 13C15.9429 13 15.7059 13.2239 15.7059 13.5C15.7059 13.6389 15.6455 13.8693 15.4851 14.1586C15.3292 14.4397 15.0971 14.7428 14.8021 15.0214C14.2073 15.5832 13.4079 16 12.5294 16C11.5692 16 10.7699 15.7373 10.2209 15.3059C9.6807 14.8816 9.35294 14.2727 9.35294 13.5C9.35294 12.3347 10.3761 11.4525 12.0577 10.8417C12.7447 10.5921 13.794 10.3862 14.6681 10.2146C15.0678 10.1362 15.4308 10.0649 15.7059 10C16.7914 9.7437 17.4752 9.50606 17.991 9.3268C18.5654 9.12721 18.9314 9 19.4118 9C20.9782 9 21 11 21 13C21 15 20.8695 20 12.5294 20C7.23529 20 3 18.577 3 15.0214C3 12.5248 4.63243 11.7709 5.87035 11.1991C6.6264 10.85 7 10.5687 7 10C7 9.22882 6.48633 9.11194 6.12224 9.0291C6.07901 9.01926 6.0379 9.00991 6 9C4.91095 8.71513 4 8.02943 4 7C4 6.54998 4.36352 6.07778 5 6C5.90713 5.88914 6.77032 5.63368 7.48267 4.91916C8.61374 3.78464 9.8125 3.00001 11.5 3ZM10 6C10 5.44771 9.58477 5 9 5C8.41523 5 8 5.44771 8 6C8 6.55228 8.41523 7 9 7C9.58477 7 10 6.55228 10 6Z" fill="#cbd5e1"/>
</svg>
