<svg width="24" height="24" viewBox="0 0 24 24" fill="none" xmlns="http://www.w3.org/2000/svg">
<path d="M3.95509 17.294C2.72077 15.9137 2.49295 13.054 4.7642 11.9362C6.15562 11.2515 8.46765 11.0095 10.433 11.7384C11.0827 11.9794 11.5617 12.4411 12.0039 12.0582C12.3732 11.7384 11.9446 11.2106 11.3783 10.8628C10.0757 10.0628 8 9.5 5 10.5C3.70118 10.9329 3.58398 10.0251 3.47192 9.00789C3.35985 7.99073 3.12129 5.8942 3.00728 4.85941C2.94348 4.28028 3.29765 3.95756 4.12237 4.27799C4.44252 4.40238 5.14804 5.18444 5.50521 5.32321C6.7755 5.81677 6.90861 5.16007 8.27778 5C9.41489 4.86706 10.1258 5.52248 11.0166 4.82828C11.3854 4.54083 11.6444 3.50927 12.004 3.22903C12.3991 2.92106 12.9522 2.81763 13.2018 3.60827C13.3727 4.14954 13.7905 5.50435 13.9719 6.07896C14.2606 6.99364 14.4853 7.22268 15.5628 7.40825C16.8263 7.62584 18.7925 8.12917 20.0839 9.25389C22.1176 11.0253 22.7566 14.5128 20.8954 17.0203C19.4485 18.9534 15.9777 19.9572 12.494 19.9987C9.06283 20.0395 5.6201 19.1467 3.95509 17.294Z" fill="#cbd5e1"/>
</svg>
