<?xml version="1.0" encoding="utf-8"?>
<!-- Uploaded to: SVG Repo, www.svgrepo.com, Generator: SVG Repo Mixer Tools -->
<svg fill="#000000" width="33px" height="33px" viewBox="0 0 32 32" version="1.1" xmlns="http://www.w3.org/2000/svg">
<title>shopping-cart</title>
<path d="M26.834 24.918c-1.402 0.002-2.573 0.993-2.852 2.313l-0.003 0.019h-15.922c-0.161-0.767-0.603-1.409-1.21-1.829l-0.010-0.006 0.734-2.665h20.39c0 0 0.001 0 0.001 0 0.376 0 0.687-0.277 0.741-0.639l0-0.004 2.039-14c0.005-0.033 0.008-0.070 0.008-0.109 0-0.394-0.304-0.717-0.691-0.747l-0.003-0-25.307-1.946v-1.305c0-0 0-0 0-0 0-0.207-0.084-0.395-0.22-0.53l-2-2c-0.135-0.131-0.32-0.212-0.523-0.212-0.414 0-0.75 0.336-0.75 0.75 0 0.203 0.081 0.388 0.213 0.523l1.78 1.78v1.689c0.004 0.030 0.010 0.056 0.017 0.081l-0.001-0.005c0.002 0.021-0.007 0.041-0.003 0.062l2.968 15.83-0.813 2.955c-0.078-0.006-0.154-0.024-0.234-0.024-0.005-0-0.010-0-0.016-0-1.62 0-2.934 1.313-2.934 2.934s1.313 2.934 2.934 2.934c1.297 0 2.397-0.842 2.785-2.009l0.006-0.021c0.020 0.002 0.037 0.012 0.058 0.012h15.983c0.030-0.004 0.056-0.010 0.082-0.017l-0.005 0.001c0.393 1.172 1.482 2.002 2.764 2.002 1.607 0 2.909-1.302 2.909-2.909s-1.302-2.909-2.909-2.909c-0.002 0-0.005 0-0.007 0h0zM4.917 6.822l24.226 1.863-1.83 12.564h-19.691zM5.184 29.268c-0 0-0.001 0-0.001 0-0.792 0-1.434-0.642-1.434-1.434s0.642-1.434 1.434-1.434c0.792 0 1.434 0.642 1.434 1.434v0c-0.001 0.791-0.642 1.432-1.432 1.434h-0zM26.834 29.248c-0.781-0.001-1.414-0.634-1.414-1.415s0.634-1.415 1.415-1.415 1.415 0.634 1.415 1.415c0 0 0 0.001 0 0.001v-0c-0.001 0.781-0.635 1.414-1.416 1.414v0z"></path>
</svg>