<svg width="24" height="24" viewBox="0 0 24 24" fill="none" xmlns="http://www.w3.org/2000/svg">
<path d="M16.0999 4.10433C11.6582 1.34247 6.80442 4.1693 5.60964 8.08462C5.11662 9.70023 5.36391 10.0807 6.72174 10.8772L12.8609 14.4784C14.6979 15.556 15.3621 15.9257 16.9536 14.2008C19.5061 11.4346 20.141 6.61752 16.0999 4.10433Z" fill="#cbd5e1"/>
<path d="M11.6285 16.2195C11.6989 16.2198 11.7687 16.22 11.8377 16.22C12.3493 16.22 13.1833 16.22 12.3493 15.6947C12.1613 15.5762 11.7373 15.3093 11.1956 14.9683C9.48853 13.8936 6.61256 12.083 6.26853 11.8645C5.69855 11.5026 5.60964 11.7257 5.77148 12.1523C5.85971 12.3849 5.95363 12.6057 6.04342 12.8168C6.40972 13.6781 6.70722 14.3776 6.26853 15.0521C6.02678 15.4232 5.30124 16.3262 4.67536 17.0897C4.6498 17.1209 4.62488 17.1512 4.60061 17.1808C3.71861 18.2546 3.69609 18.282 5.29294 19.306C6.72172 20.2877 6.94926 20.2502 7.68767 19.0506C8.18709 18.2393 8.80196 17.2579 9.09319 16.8616C9.56959 16.2122 10.6545 16.216 11.6285 16.2195Z" fill="#cbd5e1"/>
<path d="M18.5 21C20.0512 21 21 20.0512 21 18.5C21 16.9488 20.0512 16 18.5 16C16.9488 16 16 16.9488 16 18.5C16 20.0512 16.9488 21 18.5 21Z" fill="#cbd5e1"/>
</svg>
