<svg width="24" height="24" viewBox="0 0 24 24" fill="none" xmlns="http://www.w3.org/2000/svg">
                        <path d="M13.4889 16.0086C13.1123 16.0432 12.6891 16.0821 11.9999 16.0821C11.3108 16.0821 10.8876 16.0432 10.511 16.0086C10.2092 15.9809 9.93735 15.9559 9.58261 15.9559C8.27054 15.9559 7.91711 17.039 7.57381 18.0911C7.56858 18.1072 7.56335 18.1232 7.55812 18.1392C7.53969 18.1956 7.52178 18.2508 7.50428 18.3047C7.14075 19.4243 6.95401 19.9994 5.99994 19.9994C5.97296 19.9994 5.94433 19.9995 5.91419 19.9997C5.05351 20.0038 2.96278 20.014 3.00101 16.9655C3.00101 6 4.93748 4.12621 11.9999 4C19.0624 4.12621 20.9989 6 20.9989 16.9655C21.0371 20.014 18.9464 20.0038 18.0857 19.9997C18.0555 19.9995 18.0269 19.9994 17.9999 19.9994C17.0459 19.9994 16.8591 19.4243 16.4956 18.3046C16.4781 18.2508 16.4602 18.1956 16.4418 18.1392C16.4365 18.1232 16.4313 18.1071 16.4261 18.0911C16.0828 17.039 15.7293 15.9559 14.4173 15.9559C14.0625 15.9559 13.7907 15.9809 13.4889 16.0086ZM8.99994 9C8.99994 8.44772 8.55222 8 7.99994 8C7.44765 8 6.99994 8.44772 6.99994 9V10H5.99994C5.44765 10 4.99994 10.4477 4.99994 11C4.99994 11.5523 5.44765 12 5.99994 12H6.99994V13C6.99994 13.5523 7.44765 14 7.99994 14C8.55222 14 8.99994 13.5523 8.99994 13V12H9.99994C10.5522 12 10.9999 11.5523 10.9999 11C10.9999 10.4477 10.5522 10 9.99994 10H8.99994V9ZM16.9999 9C16.9999 8.44772 16.5522 8 15.9999 8C15.4477 8 14.9999 8.44772 14.9999 9C14.9999 9.55228 15.4477 10 15.9999 10C16.5522 10 16.9999 9.55228 16.9999 9ZM15.9999 14C16.5522 14 16.9999 13.5523 16.9999 13C16.9999 12.4477 16.5522 12 15.9999 12C15.4477 12 14.9999 12.4477 14.9999 13C14.9999 13.5523 15.4477 14 15.9999 14ZM13.9999 12C14.5522 12 14.9999 11.5523 14.9999 11C14.9999 10.4477 14.5522 10 13.9999 10C13.4477 10 12.9999 10.4477 12.9999 11C12.9999 11.5523 13.4477 12 13.9999 12ZM17.9999 12C18.5522 12 18.9999 11.5523 18.9999 11C18.9999 10.4477 18.5522 10 17.9999 10C17.4477 10 16.9999 10.4477 16.9999 11C16.9999 11.5523 17.4477 12 17.9999 12Z" fill="#cbd5e1"></path>
                      </svg>